<?xml version="1.0" encoding="utf-8"?>
<!-- Generator: Adobe Illustrator 21.1.0, SVG Export Plug-In . SVG Version: 6.00 Build 0)  -->
<svg version="1.1" id="Слой_1" xmlns="http://www.w3.org/2000/svg" xmlns:xlink="http://www.w3.org/1999/xlink" x="0px" y="0px"
	 width="25.1px" height="22.7px" viewBox="0 0 25.1 22.7" enable-background="new 0 0 25.1 22.7" xml:space="preserve">
<path fill="#8F9598" d="M8.6,3.6v11h12.9v-4.5h1.9c0,1.7,0.1,3.3,0,4.9c-0.1,0.9-0.9,1.5-1.9,1.5c-1.2,0-2.3,0-3.5,0
	c-3,0-5.9,0-8.9,0c-1.5,0-2.4-0.9-2.4-2.4c0.1-3.5,0-7,0-10.4c0-1.2,0.7-2,1.8-2c3.1-0.1,6.1,0,9.3,0v1.9H8.6z"/>
<path fill="#8F9598" d="M15.1,12.6c-1.6-1.5-3.1-3-4.6-4.5c0.5-0.5,1-1,1.5-1.5c0.9,0.9,1.8,1.9,2.8,2.8c2.9-3.2,5.7-6.2,8.5-9.3
	c0.6,0.5,1.1,1,1.7,1.6C21.7,5.3,18.4,8.9,15.1,12.6"/>
<path fill="#8F9598" d="M16.8,17.7v2.7H2.2V7.9H5V5.8c-1,0-2,0-3,0c-1.3,0-2,1-2,2.3C0,12.1,0.1,16,0,20c0,1.7,1,2.7,2.7,2.7
	c3.4-0.1,6.7,0,10.1,0c1.3,0,2.6,0,3.9,0c1.1,0,2.1-0.7,2.2-1.7c0.1-1.1,0.1-2.1,0.1-3.2H16.8z"/>
</svg>
