<?xml version="1.0" encoding="utf-8"?>
<!-- Generator: Adobe Illustrator 21.1.0, SVG Export Plug-In . SVG Version: 6.00 Build 0)  -->
<svg version="1.1" id="Слой_1" xmlns="http://www.w3.org/2000/svg" xmlns:xlink="http://www.w3.org/1999/xlink" x="0px" y="0px"
	 width="38px" height="34px" viewBox="0 0 38 34" enable-background="new 0 0 38 34" xml:space="preserve">
<path fill="#2C7747" d="M4,7.3V30h26.4v-9.3h3.8c0,3.4,0.1,6.8-0.1,10.1c-0.1,1.9-1.8,3.1-3.9,3.1c-2.4,0.1-4.7,0-7.1,0
	c-6.1,0-12.2-0.1-18.3,0c-3,0.1-4.9-1.8-4.8-4.9C0.2,22,0.1,14.8,0.1,7.7c0-2.4,1.4-4.1,3.7-4.2c6.3-0.1,12.6,0,19,0v3.9H4z"/>
<path fill="#2C7747" d="M17.5,25.8c-3.2-3.2-6.3-6.2-9.4-9.3c1-1,2-2.1,3.1-3.2c1.9,1.9,3.8,3.8,5.7,5.8C22.8,12.7,28.6,6.4,34.4,0
	c1.2,1.1,2.3,2.1,3.6,3.2C31.1,10.8,24.2,18.4,17.5,25.8"/>
</svg>
