<?xml version="1.0" encoding="utf-8"?>
<!-- Generator: Adobe Illustrator 21.1.0, SVG Export Plug-In . SVG Version: 6.00 Build 0)  -->
<svg version="1.1" id="Слой_1" xmlns="http://www.w3.org/2000/svg" xmlns:xlink="http://www.w3.org/1999/xlink" x="0px" y="0px"
	 viewBox="0 0 50 50" style="enable-background:new 0 0 50 50;" xml:space="preserve">
<style type="text/css">
	.st0{fill:#374163;}
</style>
<g>
	<path class="st0" d="M25,49.9c-13.8,0-25-11.2-25-25C0,11.2,11.2,0.1,25,0.1s25,11.2,25,24.9C50,38.7,38.8,49.9,25,49.9z M25,4.7
		c-11.2,0-20.4,9.1-20.4,20.3c0,11.2,9.2,20.4,20.4,20.4s20.4-9.1,20.4-20.4C45.4,13.8,36.2,4.7,25,4.7z"/>
	<path class="st0" d="M29.3,27.8c-0.7,0-1.4-0.3-1.8-0.9c-0.8-1-0.6-2.5,0.5-3.2c1.1-0.8,1.9-2.3,1.9-3.7c0-2.6-2.2-4.8-4.8-4.8
		s-4.8,2.2-4.8,4.8c0,1.3-1,2.3-2.3,2.3c-1.3,0-2.3-1-2.3-2.3c0-5.2,4.2-9.4,9.4-9.4s9.4,4.2,9.4,9.4c0,2.9-1.4,5.7-3.7,7.4
		C30.2,27.6,29.8,27.8,29.3,27.8z"/>
	<path class="st0" d="M25,31.9c-1.3,0-2.3-1-2.3-2.3c0-3.3,2.7-4.6,4.2-5.4c0.4-0.2,0.8-0.4,1.1-0.6c1-0.7,2.5-0.5,3.2,0.5
		c0.7,1,0.5,2.5-0.5,3.2c-0.5,0.4-1.1,0.7-1.7,1c-1.5,0.7-1.6,0.9-1.6,1.2C27.3,30.8,26.3,31.9,25,31.9z"/>
	<path class="st0" d="M25,39.5c-1.3,0-2.3-1-2.3-2.3v-1.4c0-1.3,1-2.3,2.3-2.3s2.3,1,2.3,2.3v1.4C27.3,38.4,26.3,39.5,25,39.5z"/>
</g>
</svg>
