<?xml version="1.0" encoding="utf-8"?>
<!-- Generator: Adobe Illustrator 21.1.0, SVG Export Plug-In . SVG Version: 6.00 Build 0)  -->
<svg version="1.1" id="Слой_1" xmlns="http://www.w3.org/2000/svg" xmlns:xlink="http://www.w3.org/1999/xlink" x="0px" y="0px"
	 width="168.2px" height="90.2px" viewBox="0 0 168.2 90.2" style="enable-background:new 0 0 168.2 90.2;" xml:space="preserve">
<style type="text/css">
	.st0{fill:#2BA12C;}
	.st1{fill:#FFFFFF;}
	.st2{fill:url(#SVGID_1_);}
	.st3{fill:url(#SVGID_2_);}
	.st4{fill:url(#SVGID_3_);}
	.st5{fill:#7990A0;}
	.st6{fill:#15202F;}
	.st7{fill:url(#SVGID_4_);}
	.st8{fill:url(#SVGID_5_);}
</style>
<g>
	<path class="st0" d="M168.2,45.1c0,24.9-20.2,45.1-45.1,45.1S78.1,70,78.2,45c0-24.9,20.2-45,45.2-45
		C148.1,0,168.2,20.2,168.2,45.1z"/>
	<path class="st1" d="M121.1,49.5c0,6.8,0,13.6,0,20.3c0,1.4-0.3,1.9-1.8,1.9c-4.5,0-4.5,0-4.5-4.5c0-10.6,0-21.2,0-31.8
		c0-1.7-0.4-2.2-2.1-2.1c-1.8,0.2-3.7,0-5.5,0.2c-5.6,0.7-9.9,6-9.7,11.9c0.1,5.7,4.7,10.7,10.3,11.2c3,0.3,3,0.3,3,3.3
		c0,3.3,0,3.3-3.2,3C97.8,62,90.9,54,91.3,44.1c0.3-9.2,8.1-16.7,17.6-17c3.5-0.1,6.9,0.1,10.4-0.1c1.6-0.1,1.8,0.6,1.8,1.9
		C121,35.8,121.1,42.6,121.1,49.5z"/>
	<path class="st1" d="M125.1,40.7c0-6.8,0-13.7,0-20.5c0-1.3,0.3-1.8,1.7-1.8c4.6,0,4.6-0.1,4.6,4.6c0,10.4,0.1,20.8-0.1,31.1
		c0,2.2,0.7,2.8,2.7,2.6c2.3-0.2,4.6,0.2,6.8-0.6c5.1-1.7,8.4-7,7.8-12.2c-0.7-5.7-5-10.1-10.5-10.3c-2.3-0.1-2.8-0.8-2.7-2.9
		c0.2-3.9,0.1-3.9,4-3.3c9.1,1.3,15.8,9.1,15.5,18.2c-0.3,9.1-7.2,16.6-16.3,17.3c-4,0.3-8.1,0.1-12.1,0.2c-1.4,0-1.4-0.7-1.4-1.8
		C125.1,54.4,125.1,47.5,125.1,40.7z"/>
</g>
<g>
	<g>
		
			<linearGradient id="SVGID_1_" gradientUnits="userSpaceOnUse" x1="8.6" y1="106.7" x2="8.6" y2="106.7" gradientTransform="matrix(1 0 0 -1 0 118.8)">
			<stop  offset="0" style="stop-color:#8196A7"/>
			<stop  offset="0.5297" style="stop-color:#7E95A7"/>
			<stop  offset="1" style="stop-color:#000000"/>
		</linearGradient>
		<path class="st2" d="M8.6,12.1L8.6,12.1L8.6,12.1z"/>
		
			<linearGradient id="SVGID_2_" gradientUnits="userSpaceOnUse" x1="8.4387" y1="106.4059" x2="89.6339" y2="59.5278" gradientTransform="matrix(1 0 0 -1 0 118.8)">
			<stop  offset="0" style="stop-color:#8196A7"/>
			<stop  offset="0.5297" style="stop-color:#7E95A7"/>
			<stop  offset="1" style="stop-color:#000000"/>
		</linearGradient>
		<path class="st3" d="M88.4,45.9c0-1.5-0.2-3-0.4-4.4c-0.3-2.3-0.8-4.5-1.5-6.8c-1.3-4.2-3.1-8.2-5.4-11.9
			c-2.2-3.4-4.7-6.5-7.6-9.3c-1-0.9-2-1.8-3-2.6c-2.1-1.6-4.3-3.1-6.6-4.4c-2.4-1.4-5-2.5-7.6-3.5c-3.2-1.1-6.5-1.9-9.9-2.3
			c-1.3-0.2-2.6-0.3-3.9-0.3c-0.1,0-0.2,0-0.2-0.1c-1.2,0-2.4,0-3.6,0c0,0.1-0.1,0.1-0.2,0.1c-0.4,0-0.8,0-1.2,0.1
			c-0.7,0-1.3,0.1-2,0.2c-1.2,0.1-2.5,0.3-3.7,0.5c-2.9,0.5-5.7,1.3-8.4,2.4c-2.7,1-5.2,2.3-7.7,3.7c-2.3,1.4-4.5,3-6.6,4.8
			c-0.1,0.1-0.2,0.1-0.2,0.2c0.1,0,0.1-0.1,0.2-0.1c2.7-2,5.6-3.8,8.8-5.2c0.6-0.3,1.2-0.5,1.8-0.8c1.9-0.8,3.9-1.5,5.9-2
			c1-0.3,2-0.5,3-0.7c1.6-0.3,3.3-0.6,5-0.7c1.5-0.1,3-0.2,4.5-0.2c1,0,1.9,0,2.9,0.1c0.7,0.1,1.4,0.1,2,0.2C44,3,45.1,3.2,46.3,3.4
			c2,0.4,4,0.8,5.9,1.4c3,0.9,5.9,2.2,8.6,3.7c1.1,0.6,2.2,1.2,3.2,1.9c1.5,1,3,2.1,4.4,3.2c0.9,0.7,1.7,1.5,2.6,2.3
			c1.4,1.4,2.8,2.8,4.1,4.4c0.8,1,1.5,1.9,2.2,2.9c0.8,1.2,1.6,2.4,2.3,3.7c1.9,3.3,3.3,6.8,4.4,10.4c0.3,1.1,0.6,2.2,0.8,3.3
			c0.5,2.3,0.8,4.7,1,7c0,0.2,0,0.3,0.1,0.5c0,0.4,0,0.9,0.1,1.3c0.1,2.8-0.1,5.7-0.5,8.5c-0.4,2.6-1,5.2-1.8,7.8
			c-2.5,7.8-6.8,14.4-12.7,20.1c-0.1,0.1-0.3,0.2-0.4,0.4c0.1-0.1,0.2-0.2,0.4-0.2c1.4-1.1,2.7-2.4,4-3.7
			c4.8-4.9,8.4-10.6,10.8-17.1c0.4-1,0.7-1.9,1-2.9c0.7-2.3,1.2-4.7,1.5-7.1c0.2-1.4,0.3-2.8,0.4-4.1c-0.1-0.5,0-0.9,0-1.4
			c0,0,0-0.1,0.1-0.1c0-0.3,0-0.7,0-1c0-0.8,0-1.5,0-2.3C88.3,46,88.4,45.9,88.4,45.9z"/>
		
			<linearGradient id="SVGID_3_" gradientUnits="userSpaceOnUse" x1="70.4" y1="32.8" x2="70.4" y2="32.8" gradientTransform="matrix(1 0 0 -1 0 118.8)">
			<stop  offset="0" style="stop-color:#8196A7"/>
			<stop  offset="0.5297" style="stop-color:#7E95A7"/>
			<stop  offset="1" style="stop-color:#000000"/>
		</linearGradient>
		<path class="st4" d="M70.4,86L70.4,86L70.4,86z"/>
	</g>
	<path class="st5" d="M88.3,50.8c-0.1-0.5,0-0.9,0-1.4c0,0,0-0.1,0.1-0.1C88.4,49.9,88.4,50.4,88.3,50.8
		C88.4,50.8,88.4,50.8,88.3,50.8z"/>
	<path class="st5" d="M36.4,89.3c0.4,0,0.9,0,1.3,0.1C37.2,89.4,36.8,89.4,36.4,89.3L36.4,89.3L36.4,89.3z"/>
	<path class="st5" d="M39.6,89.4c0.3-0.1,0.6-0.1,0.9-0.1c0,0,0,0,0,0.1C40.2,89.4,39.9,89.4,39.6,89.4z"/>
	<path class="st5" d="M36.3,53.2c0.3-0.4,0.5-0.7,0.7-1c1.5-2.1,2.9-4.3,4.4-6.4c1.6-2.3,3.2-4.6,4.8-6.9c0.3-0.4,0.4-0.8,0.4-1.3
		c0-0.4-0.1-0.7-0.2-1c-0.3-0.9-0.9-1.6-1.7-2.1c-0.4-0.3-0.8-0.4-1.3-0.4c-0.6,0-1.2,0-1.7,0.2c-1,0.4-1.6,1-2,2
		c-0.6,1.6-0.4,3,0.6,4.4c0.2,0.3,0.1,0.3,0,0.4c-0.7,0.7-1.4,1.4-2.1,2c-0.1,0.1-0.2,0.2-0.3,0.1c-1.2-1.1-2.1-2.3-2.4-3.9
		c-0.4-1.5-0.2-3,0.5-4.3c0.5-1,1.1-1.8,1.8-2.7c0.9-1.1,2.1-1.7,3.5-1.9c1.7-0.3,3.4-0.1,5,0.6c1.1,0.4,2,1.2,2.8,2.1
		c0.6,0.7,1.1,1.5,1.4,2.3c0.7,1.8,0.6,3.6-0.3,5.3c-0.8,1.6-1.7,3.1-2.8,4.5c-0.9,1.2-1.9,2.4-2.8,3.6c-0.1,0.1-0.2,0.2-0.2,0.4
		c0.1,0.1,0.2,0.1,0.4,0.1c1.7,0,3.4,0,5.1,0c0.1,0,0.2,0,0.2,0c0.3,0,0.3,0,0.3,0.3c0,0.9,0,1.9,0,2.8c0,0.3,0,0.6,0,0.8
		c0,0.2,0,0.2-0.2,0.2c-0.1,0-0.2,0-0.2,0c-4.4,0-8.7,0-13.1,0C36.6,53.2,36.5,53.2,36.3,53.2z"/>
	<path class="st5" d="M20.4,41.4c0-0.2,0-0.2,0-0.3c0-1.3,0-2.5,0-3.8c0-0.2,0.1-0.4,0.3-0.5c1.3-0.7,2.7-1,4.2-0.9
		c3,0.2,5.3,1.6,7,4.2c1,1.6,1.4,3.4,1.2,5.3c-0.3,2.7-1.5,4.8-3.7,6.3c-1.7,1.2-3.6,1.7-5.7,1.5c-2.2-0.2-4.2-1.1-5.8-2.7
		c-1.2-1.2-1.9-2.6-2.1-4.3c-0.1-0.4-0.1-0.8-0.1-1.2c0-4.8,0-9.6,0-14.4c0-0.4,0-0.4,0.4-0.4c1,0,1.9,0,2.9,0c0.3,0,0.3,0,0.3,0.4
		c0,4.7,0,9.4,0,14.1c0,2.1,1.3,3.9,3.1,4.6c1.3,0.5,2.6,0.6,3.9,0c0.9-0.4,1.6-1.1,2.2-1.9c0.8-1.3,1-2.6,0.7-4.1
		c-0.3-1.4-1.1-2.5-2.4-3.1c-1.9-0.9-3.8-0.7-5.6,0.5C20.9,40.9,20.7,41.1,20.4,41.4z"/>
	<path class="st5" d="M58.5,41.4c-0.1-0.1,0-0.2,0-0.3c0-1.3,0-2.5,0-3.8c0-0.3,0.1-0.4,0.3-0.5c1.3-0.7,2.7-1,4.1-0.9
		c2.5,0.1,4.6,1.2,6.2,3.1c1.1,1.3,1.8,2.8,2,4.6c0.3,2.9-0.6,5.4-2.7,7.4c-1.3,1.3-3,2-4.8,2.2c-2.6,0.3-4.9-0.4-7-2
		c-1.5-1.2-2.4-2.8-2.8-4.7c-0.1-0.4-0.1-0.8-0.1-1.2c0-4.9,0-9.7,0-14.6c0,0,0,0,0-0.1c0-0.3,0-0.3,0.3-0.3c1,0,2,0,3,0
		c0.3,0,0.3,0,0.3,0.3c0,1.3,0,2.6,0,3.9c0,3.4,0,6.8,0,10.1c0,2.7,1.9,4.4,3.8,4.9c1.6,0.4,3.1,0.2,4.4-0.9c1-0.8,1.6-1.9,1.8-3.2
		c0.1-0.8,0.1-1.7-0.1-2.5c-0.4-1.5-1.4-2.4-2.8-2.9c-1.6-0.5-3.2-0.4-4.6,0.4C59.3,40.7,58.9,41,58.5,41.4z"/>
	<path class="st6" d="M37.5,65.1c-1.2,0-2.5,0-3.7,0c-0.7,0-1.3-0.1-1.9-0.3c-0.6-0.2-1.1-0.6-1.4-1.2c-0.4-0.7-0.5-1.5-0.5-2.2
		c0-1.2-0.1-2.4,0-3.6c0.1-0.6,0.2-1.1,0.4-1.7c0.3-0.8,0.9-1.3,1.7-1.5c0.8-0.2,1.7-0.3,2.5-0.3c2.1,0,4.3,0,6.4,0
		c0.7,0,1.4,0.1,2.2,0.3c0.8,0.2,1.3,0.7,1.6,1.5c0.2,0.6,0.4,1.3,0.4,1.9c0,1.2,0,2.4,0,3.5c0,0.4-0.1,0.9-0.2,1.3
		c-0.4,1.2-1.2,1.9-2.4,2c-1,0.1-1.9,0.1-2.9,0.1C38.9,65.1,38.2,65.1,37.5,65.1L37.5,65.1z M37.2,63.9c1.2,0,2.3,0,3.3,0
		c0.5,0,1-0.1,1.5-0.1c0.7-0.1,1.1-0.5,1.3-1.1c0.1-0.4,0.2-0.8,0.2-1.3c0-1,0-2,0-3c0-0.5-0.1-1-0.2-1.5c-0.2-0.6-0.6-0.9-1.1-1.1
		c-0.5-0.1-1-0.2-1.5-0.2c-2.1,0-4.3,0-6.4,0c-0.3,0-0.6,0-0.9,0.1c-0.8,0.1-1.3,0.5-1.5,1.2c-0.1,0.2-0.1,0.3-0.1,0.5
		c-0.1,0.4-0.1,0.8-0.1,1.2c0,0.8,0,1.7,0,2.5c0,0.6,0.1,1.2,0.3,1.8c0.2,0.5,0.5,0.8,1.1,0.9c0.3,0.1,0.6,0.1,1,0.1
		C35.1,63.9,36.2,63.9,37.2,63.9z"/>
	<path class="st6" d="M15.9,61.7c0.5,0,0.9,0,1.3,0c0.1,0,0.1,0.1,0.1,0.2c0,0.3,0,0.5,0,0.8c0.1,0.5,0.4,0.9,0.9,1
		c0.4,0.1,0.9,0.2,1.4,0.2c1.5,0,3,0,4.6,0c0.6,0,1.3-0.1,1.9-0.3c0.2-0.1,0.5-0.2,0.7-0.3c0.3-0.2,0.4-0.5,0.4-0.8
		c0-0.4,0-0.7,0-1.1c-0.1-0.6-0.5-1.1-1.2-1.1c-0.3,0-0.5,0-0.8,0c-1.9,0-3.8,0-5.7,0c-0.6,0-1.1,0-1.7-0.1c-0.4-0.1-0.7-0.2-1-0.4
		c-0.7-0.4-1.1-0.9-1.1-1.7c0-0.5,0-0.9,0-1.4c0.2-1.1,0.9-1.9,2.1-2.1c0.9-0.2,1.8-0.2,2.8-0.2c1.2,0,2.4,0,3.6,0
		c0.8,0,1.5,0.1,2.3,0.3c0.9,0.3,1.5,0.9,1.8,1.8c0.1,0.4,0.1,0.7,0.1,1.1c-0.5,0-1,0-1.5,0c-0.1-0.2,0-0.3,0-0.5
		c0-0.6-0.3-1.1-0.9-1.2c-0.4-0.1-0.9-0.2-1.3-0.2c-1.6,0-3.3,0-4.9,0c-0.4,0-0.8,0-1.2,0.1c-0.8,0.2-1.2,0.6-1.2,1.4
		c0,0.2,0,0.3,0,0.5c0,0.8,0.5,1.4,1.4,1.4c0.3,0,0.6,0,0.9,0c1.8,0,3.6,0,5.4,0c0.7,0,1.3,0.1,2,0.3c0.3,0.1,0.5,0.2,0.8,0.3
		c0.6,0.4,1,0.9,1.1,1.7c0.1,0.6,0.1,1.1,0,1.7c-0.1,0.5-0.3,0.9-0.7,1.3c-0.6,0.5-1.2,0.7-2,0.8c-0.9,0.1-1.8,0.1-2.7,0.1
		c-1.2,0-2.4,0-3.5,0c-0.7,0-1.4,0-2.1-0.3c-0.1-0.1-0.3-0.1-0.4-0.2c-0.9-0.3-1.3-1-1.4-2C15.9,62.4,15.9,62.1,15.9,61.7z"/>
	<path class="st6" d="M52,54.3c1.7,0,3.5,0,5.2,0c0.1,0,0.2,0,0.2,0c0.1,0,0.2,0,0.2,0.2c0,0.3,0,0.6,0,0.9c0,0.1-0.1,0.2-0.2,0.1
		c-0.1,0-0.2,0-0.3,0c-3,0-5.9,0-8.9,0c-0.1,0-0.2,0-0.2,0c-0.1,0-0.1,0-0.1,0.1v0.1c0,1,0,1.9,0,2.9c0,0.3,0,0.3,0.3,0.3
		c2.8,0,5.7,0,8.5,0c0.1,0,0.1,0,0.2,0c0.3,0,0.3,0,0.3,0.3s0,0.5,0,0.8c0,0.1-0.1,0.2-0.2,0.2s-0.2,0-0.2,0c-2.8,0-5.6,0-8.5,0
		c-0.4,0-0.4-0.1-0.4,0.4c0,1.4,0,2.8,0,4.1c0,0.1,0,0.2,0,0.2c0,0.1,0,0.1-0.1,0.1c-0.4,0-0.8,0-1.2,0c-0.1,0-0.1,0-0.1-0.1
		s0-0.2,0-0.2c0-3.3,0-6.7,0-10c0-0.4,0-0.4,0.4-0.4C48.5,54.3,50.2,54.3,52,54.3z"/>
	<path class="st6" d="M64.6,54.3c2.1,0,4.1,0,6.2,0c0.1,0,0.2,0,0.2,0c0.1,0,0.2,0,0.2,0.2c0,0.3,0,0.6,0,0.9c0,0.1,0,0.2-0.2,0.2
		c-0.1,0-0.2,0-0.2,0c-1.7,0-3.3,0-5,0c-0.1,0-0.1,0-0.2,0c-0.2,0-0.3,0-0.3,0.3c0,1.8,0,3.7,0,5.5c0,1.2,0,2.3,0,3.5
		c0,0.3,0,0.3-0.3,0.3s-0.6,0-0.9,0c-0.1,0-0.2,0-0.2-0.2c0-0.1,0-0.2,0-0.3c0-2.9,0-5.8,0-8.7c0-0.4,0-0.4-0.4-0.4
		c-1.7,0-3.5,0-5.2,0c-0.1,0-0.2,0-0.3,0c-0.1,0-0.1,0-0.1-0.1c0-0.3,0-0.6,0-0.9c0-0.1,0-0.1,0.1-0.1s0.2,0,0.3,0
		C60.4,54.3,62.5,54.3,64.6,54.3z"/>
	
		<linearGradient id="SVGID_4_" gradientUnits="userSpaceOnUse" x1="7.0043" y1="77.2318" x2="68.085" y2="41.9669" gradientTransform="matrix(1 0 0 -1 0 118.8)">
		<stop  offset="0" style="stop-color:#8196A7"/>
		<stop  offset="9.085447e-02" style="stop-color:#728594"/>
		<stop  offset="0.4077" style="stop-color:#414C55"/>
		<stop  offset="0.6757" style="stop-color:#1E2327"/>
		<stop  offset="0.8814" style="stop-color:#08090B"/>
		<stop  offset="1" style="stop-color:#000000"/>
	</linearGradient>
	<path class="st7" d="M76.9,46.4L76.9,46.4c-0.1,0.1-0.1,0.2-0.1,0.3v0.1c0,0.6,0,1.3,0,1.9v0.1c0,0.1,0,0.1,0,0.2
		c0,0.2,0,0.3,0,0.5c0,0.5,0,1-0.1,1.5c-0.2,2.1-0.5,4.1-1,6.1c-1.8,7.1-5.3,13.2-10.5,18.3c-3,3-6.5,5.4-10.3,7.2
		c-4.4,2.1-9.1,3.4-14,3.7c-2,0.1-4,0.1-6,0c-1.8-0.2-3.6-0.4-5.4-0.8C24.2,84.3,19.3,82,15,78.8c-0.9-0.7-1.8-1.4-2.7-2.2
		c0-0.1-0.1-0.1-0.1-0.2c-1.3-1.2-2.6-2.5-3.7-3.9c-1.8-2.2-3.4-4.5-4.6-7c-0.5-0.9-0.9-1.8-1.3-2.8C2.3,62,2,61.2,1.7,60.5
		C1.4,59.8,1.2,59,1,58.3c-0.2-0.8-0.4-1.5-0.6-2.3c-0.2-0.8-0.3-1.5-0.4-2.3c0,0.2,0,0.5,0.1,0.7c0.1,1.2,0.3,2.4,0.5,3.5
		c0.6,3.3,1.7,6.5,3.2,9.6c1.8,3.8,4.2,7.1,7.1,10.1c0.1,0.1,0.2,0.2,0.3,0.3c1.9,1.9,4,3.6,6.2,5.1c2.8,1.9,5.9,3.3,9.1,4.4
		c0.8,0.3,1.7,0.5,2.6,0.8c1,0.3,2,0.5,3,0.6c1.5,0.3,2.9,0.4,4.4,0.5c0.4,0,0.9,0,1.3,0.1c0.6,0,1.3,0,1.9,0
		c0.3-0.1,0.6-0.1,0.9-0.1c1.1,0,2.1-0.1,3.2-0.3c2.4-0.3,4.7-0.8,6.9-1.6c5.8-1.9,10.9-5,15.2-9.4c3-3,5.5-6.4,7.3-10.3
		c2.6-5.3,3.9-11,4-16.9C77.2,49.4,77.1,47.9,76.9,46.4z"/>
	<path class="st5" d="M76.9,46.4L76.9,46.4c-0.2-0.3-0.1-0.5-0.1-0.8C76.9,45.9,76.9,46.1,76.9,46.4z"/>
	<path class="st5" d="M14.4,68.1L14.4,68.1c0.1,0,0.3,0.1,0.3,0.3l0,0C14.6,68.3,14.5,68.2,14.4,68.1z"/>
	<path class="st5" d="M76.8,49c0,0.2,0,0.3,0,0.5C76.8,49.3,76.8,49.2,76.8,49z"/>
	<path class="st5" d="M70.2,86.1c0-0.1,0.1-0.1,0.2-0.1l0,0C70.4,86.1,70.3,86.1,70.2,86.1C70.3,86.1,70.3,86.1,70.2,86.1z"/>
	<path class="st5" d="M8.6,12.1C8.6,12.2,8.5,12.2,8.6,12.1L8.6,12.1C8.5,12.1,8.6,12.1,8.6,12.1L8.6,12.1z"/>
	<path class="st5" d="M70.3,86.1c0,0.1-0.1,0.1-0.1,0.1l0,0C70.2,86.2,70.2,86.1,70.3,86.1L70.3,86.1z"/>
	<path class="st5" d="M76.8,48.8L76.8,48.8L76.8,48.8z"/>
	<path class="st5" d="M76.8,46.7C76.8,46.8,76.8,46.8,76.8,46.7C76.8,46.8,76.8,46.8,76.8,46.7z"/>
	<path class="st5" d="M8.5,12.2L8.5,12.2C8.4,12.2,8.5,12.2,8.5,12.2L8.5,12.2z"/>
	<path class="st5" d="M14.7,68.4C14.8,68.4,14.8,68.4,14.7,68.4C14.8,68.5,14.8,68.5,14.7,68.4C14.8,68.5,14.7,68.4,14.7,68.4
		L14.7,68.4z"/>
	<path class="st5" d="M14.9,68.5C14.8,68.5,14.8,68.5,14.9,68.5C14.8,68.5,14.8,68.5,14.9,68.5C14.8,68.5,14.9,68.5,14.9,68.5
		L14.9,68.5z"/>
	<path class="st5" d="M14.9,68.5L14.9,68.5C14.9,68.6,14.9,68.6,14.9,68.5L14.9,68.5z"/>
	<path class="st5" d="M70.1,86.2L70.1,86.2L70.1,86.2L70.1,86.2L70.1,86.2z"/>
	
		<linearGradient id="SVGID_5_" gradientUnits="userSpaceOnUse" x1="-1761.5872" y1="2302.2607" x2="-1710.2052" y2="2272.5952" gradientTransform="matrix(-0.7878 0.616 0.616 0.7878 -2742.6289 -693.494)">
		<stop  offset="0" style="stop-color:#8196A7"/>
		<stop  offset="9.085447e-02" style="stop-color:#728594"/>
		<stop  offset="0.4077" style="stop-color:#414C55"/>
		<stop  offset="0.6757" style="stop-color:#1E2327"/>
		<stop  offset="0.8814" style="stop-color:#08090B"/>
		<stop  offset="1" style="stop-color:#000000"/>
	</linearGradient>
	<path class="st8" d="M14.5,68.3L14.5,68.3c0-0.1-0.1-0.2-0.1-0.3c0,0,0,0,0-0.1c-0.3-0.4-0.7-0.8-1-1.3c0,0,0,0,0-0.1l-0.1-0.1
		c-0.1-0.1-0.2-0.2-0.2-0.3c-0.2-0.4-0.5-0.7-0.7-1.1c-0.9-1.5-1.8-3-2.5-4.6c-2.5-5.6-3.3-11.5-2.5-17.6c0.5-3.5,1.5-6.9,3.1-10.1
		c1.8-3.7,4.3-6.9,7.3-9.7c1.2-1.1,2.6-2.2,4-3.1c1.3-0.8,2.6-1.6,4-2.3c4.2-1.9,8.5-3,13.1-3.1c1,0,1.9,0,2.9,0.1c0,0,0.1,0,0.2,0
		c1.5,0.1,3,0.3,4.5,0.6c2.3,0.5,4.6,1.2,6.7,2.2c0.8,0.4,1.6,0.7,2.3,1.2c0.6,0.3,1.2,0.7,1.7,1c0.6,0.4,1.1,0.7,1.6,1.1
		s1.1,0.8,1.6,1.2c0.5,0.4,1,0.9,1.5,1.3c-0.1-0.2-0.3-0.3-0.4-0.5c-0.7-0.7-1.4-1.4-2.2-2.1c-2.2-1.9-4.5-3.4-7.1-4.7
		c-3.2-1.5-6.5-2.6-10-3c-0.1,0-0.2-0.1-0.3,0c-2.2-0.3-4.5-0.3-6.7-0.1c-2.8,0.2-5.6,0.8-8.3,1.8c-0.7,0.3-1.4,0.5-2.1,0.8
		c-0.8,0.3-1.6,0.7-2.3,1.1c-1.1,0.6-2.2,1.2-3.2,2c-0.3,0.2-0.5,0.5-0.9,0.6c-0.4,0.3-0.9,0.7-1.3,1c-0.1,0.2-0.4,0.3-0.5,0.5
		c-0.7,0.6-1.3,1.2-2,1.8c-1.4,1.4-2.7,3-3.8,4.6C8,31.3,6.2,36,5.6,41.1c-0.4,3.6-0.3,7.1,0.5,10.6c1,4.9,3.1,9.3,6.1,13.3
		C12.8,66.5,13.6,67.4,14.5,68.3z"/>
</g>
</svg>
