<?xml version="1.0" encoding="UTF-8"?><!DOCTYPE svg PUBLIC "-//W3C//DTD SVG 1.1//EN" "http://www.w3.org/Graphics/SVG/1.1/DTD/svg11.dtd"><svg xmlns="http://www.w3.org/2000/svg"><symbol id="icon-angle-down" viewBox="0 0 137.1 80.4">
    <path d="M68.5 53.7L16.9 2.1C14.2-.6 9.7-.6 7 2.1l-5 5C-.7 9.8-.7 14.3 2 17l61.6 61.4c2.7 2.7 7.2 2.7 9.9 0L135 16.9c2.7-2.7 2.7-7.2 0-9.9l-5-5c-2.7-2.7-7.2-2.7-9.9 0L68.5 53.7z"/>
</symbol><symbol id="icon-arrow-left" viewBox="0 0 492 492">
    <path d="M464.344 207.418l.768.168H135.888l103.496-103.724c5.068-5.064 7.848-11.924 7.848-19.124 0-7.2-2.78-14.012-7.848-19.088L223.28 49.538c-5.064-5.064-11.812-7.864-19.008-7.864-7.2 0-13.952 2.78-19.016 7.844L7.844 226.914C2.76 231.998-.02 238.77 0 245.974c-.02 7.244 2.76 14.02 7.844 19.096l177.412 177.412c5.064 5.06 11.812 7.844 19.016 7.844 7.196 0 13.944-2.788 19.008-7.844l16.104-16.112c5.068-5.056 7.848-11.808 7.848-19.008 0-7.196-2.78-13.592-7.848-18.652L134.72 284.406h329.992c14.828 0 27.288-12.78 27.288-27.6v-22.788c0-14.82-12.828-26.6-27.656-26.6z"/>
</symbol><symbol id="icon-check" viewBox="0 0 26 20">
    <path d="M.3 11c-.2-.2-.3-.5-.3-.7s.1-.5.3-.7l1.4-1.4c.4-.4 1-.4 1.4 0l.1.1 5.5 5.9c.2.2.5.2.7 0L22.8.3h.1c.4-.4 1-.4 1.4 0l1.4 1.4c.4.4.4 1 0 1.4l-16 16.6c-.2.2-.4.3-.7.3s-.5-.1-.7-.3L.5 11.3.3 11z"/>
</symbol><symbol id="icon-close" viewBox="0 0 21.9 21.9">
    <path d="M14.1 11.3c-.2-.2-.2-.5 0-.7l7.5-7.5c.2-.2.3-.5.3-.7s-.1-.5-.3-.7L20.2.3c-.2-.2-.5-.3-.7-.3-.3 0-.5.1-.7.3l-7.5 7.5c-.2.2-.5.2-.7 0L3.1.3C2.9.1 2.6 0 2.4 0s-.5.1-.7.3L.3 1.7c-.2.2-.3.5-.3.7s.1.5.3.7l7.5 7.5c.2.2.2.5 0 .7L.3 18.8c-.2.2-.3.5-.3.7s.1.5.3.7l1.4 1.4c.2.2.5.3.7.3s.5-.1.7-.3l7.5-7.5c.2-.2.5-.2.7 0l7.5 7.5c.2.2.5.3.7.3s.5-.1.7-.3l1.4-1.4c.2-.2.3-.5.3-.7s-.1-.5-.3-.7l-7.5-7.5z"/>
</symbol><symbol id="icon-question-option" viewBox="0 0 50 50">
    <style>
        .st0{fill:#374163}
    </style>
    <path class="st0" d="M25 49.9c-13.8 0-25-11.2-25-25C0 11.2 11.2.1 25 .1S50 11.3 50 25 38.8 49.9 25 49.9zm0-45.2C13.8 4.7 4.6 13.8 4.6 25c0 11.2 9.2 20.4 20.4 20.4S45.4 36.3 45.4 25c0-11.2-9.2-20.3-20.4-20.3z"/>
    <path class="st0" d="M29.3 27.8c-.7 0-1.4-.3-1.8-.9-.8-1-.6-2.5.5-3.2 1.1-.8 1.9-2.3 1.9-3.7 0-2.6-2.2-4.8-4.8-4.8s-4.8 2.2-4.8 4.8c0 1.3-1 2.3-2.3 2.3-1.3 0-2.3-1-2.3-2.3 0-5.2 4.2-9.4 9.4-9.4s9.4 4.2 9.4 9.4c0 2.9-1.4 5.7-3.7 7.4-.6.2-1 .4-1.5.4z"/>
    <path class="st0" d="M25 31.9c-1.3 0-2.3-1-2.3-2.3 0-3.3 2.7-4.6 4.2-5.4.4-.2.8-.4 1.1-.6 1-.7 2.5-.5 3.2.5.7 1 .5 2.5-.5 3.2-.5.4-1.1.7-1.7 1-1.5.7-1.6.9-1.6 1.2-.1 1.3-1.1 2.4-2.4 2.4z"/>
    <path class="st0" d="M25 39.5c-1.3 0-2.3-1-2.3-2.3v-1.4c0-1.3 1-2.3 2.3-2.3s2.3 1 2.3 2.3v1.4c0 1.2-1 2.3-2.3 2.3z"/>
</symbol></svg>