<svg id="Слой_1" xmlns="http://www.w3.org/2000/svg" width="168.2" height="90.2" viewBox="0 0 168.2 90.2">
    <style>
        .st0{fill:#2ba12c}.st1{fill:#fff}.st2{fill:url(#SVGID_1_)}.st3{fill:url(#SVGID_2_)}.st4{fill:url(#SVGID_3_)}.st5{fill:#7990a0}.st6{fill:#15202f}.st7{fill:url(#SVGID_4_)}.st8{fill:url(#SVGID_5_)}
    </style>
    <path class="st0" d="M168.2 45.1c0 24.9-20.2 45.1-45.1 45.1S78.1 70 78.2 45c0-24.9 20.2-45 45.2-45 24.7 0 44.8 20.2 44.8 45.1z"/>
    <path class="st1" d="M121.1 49.5v20.3c0 1.4-.3 1.9-1.8 1.9-4.5 0-4.5 0-4.5-4.5V35.4c0-1.7-.4-2.2-2.1-2.1-1.8.2-3.7 0-5.5.2-5.6.7-9.9 6-9.7 11.9.1 5.7 4.7 10.7 10.3 11.2 3 .3 3 .3 3 3.3 0 3.3 0 3.3-3.2 3-9.8-.9-16.7-8.9-16.3-18.8.3-9.2 8.1-16.7 17.6-17 3.5-.1 6.9.1 10.4-.1 1.6-.1 1.8.6 1.8 1.9-.1 6.9 0 13.7 0 20.6z"/>
    <path class="st1" d="M125.1 40.7V20.2c0-1.3.3-1.8 1.7-1.8 4.6 0 4.6-.1 4.6 4.6 0 10.4.1 20.8-.1 31.1 0 2.2.7 2.8 2.7 2.6 2.3-.2 4.6.2 6.8-.6 5.1-1.7 8.4-7 7.8-12.2-.7-5.7-5-10.1-10.5-10.3-2.3-.1-2.8-.8-2.7-2.9.2-3.9.1-3.9 4-3.3 9.1 1.3 15.8 9.1 15.5 18.2-.3 9.1-7.2 16.6-16.3 17.3-4 .3-8.1.1-12.1.2-1.4 0-1.4-.7-1.4-1.8V40.7z"/>
    <g>
        <linearGradient id="SVGID_1_" gradientUnits="userSpaceOnUse" x1="8.6" y1="106.7" x2="8.6" y2="106.7" gradientTransform="matrix(1 0 0 -1 0 118.8)">
            <stop offset="0" stop-color="#8196a7"/>
            <stop offset=".53" stop-color="#7e95a7"/>
            <stop offset="1"/>
        </linearGradient>
        <path class="st2" d="M8.6 12.1z"/>
        <linearGradient id="SVGID_2_" gradientUnits="userSpaceOnUse" x1="8.439" y1="106.406" x2="89.634" y2="59.528" gradientTransform="matrix(1 0 0 -1 0 118.8)">
            <stop offset="0" stop-color="#8196a7"/>
            <stop offset=".53" stop-color="#7e95a7"/>
            <stop offset="1"/>
        </linearGradient>
        <path class="st3" d="M88.4 45.9c0-1.5-.2-3-.4-4.4-.3-2.3-.8-4.5-1.5-6.8-1.3-4.2-3.1-8.2-5.4-11.9-2.2-3.4-4.7-6.5-7.6-9.3-1-.9-2-1.8-3-2.6-2.1-1.6-4.3-3.1-6.6-4.4-2.4-1.4-5-2.5-7.6-3.5-3.2-1.1-6.5-1.9-9.9-2.3-1.3-.2-2.6-.3-3.9-.3-.1 0-.2 0-.2-.1h-3.6c0 .1-.1.1-.2.1-.4 0-.8 0-1.2.1-.7 0-1.3.1-2 .2-1.2.1-2.5.3-3.7.5-2.9.5-5.7 1.3-8.4 2.4-2.7 1-5.2 2.3-7.7 3.7-2.3 1.4-4.5 3-6.6 4.8-.1.1-.2.1-.2.2.1 0 .1-.1.2-.1 2.7-2 5.6-3.8 8.8-5.2.6-.3 1.2-.5 1.8-.8 1.9-.8 3.9-1.5 5.9-2 1-.3 2-.5 3-.7 1.6-.3 3.3-.6 5-.7 1.5-.1 3-.2 4.5-.2 1 0 1.9 0 2.9.1.7.1 1.4.1 2 .2 1.2.1 2.3.3 3.5.5 2 .4 4 .8 5.9 1.4 3 .9 5.9 2.2 8.6 3.7 1.1.6 2.2 1.2 3.2 1.9 1.5 1 3 2.1 4.4 3.2.9.7 1.7 1.5 2.6 2.3 1.4 1.4 2.8 2.8 4.1 4.4.8 1 1.5 1.9 2.2 2.9.8 1.2 1.6 2.4 2.3 3.7 1.9 3.3 3.3 6.8 4.4 10.4.3 1.1.6 2.2.8 3.3.5 2.3.8 4.7 1 7 0 .2 0 .3.1.5 0 .4 0 .9.1 1.3.1 2.8-.1 5.7-.5 8.5-.4 2.6-1 5.2-1.8 7.8-2.5 7.8-6.8 14.4-12.7 20.1-.1.1-.3.2-.4.4.1-.1.2-.2.4-.2 1.4-1.1 2.7-2.4 4-3.7 4.8-4.9 8.4-10.6 10.8-17.1.4-1 .7-1.9 1-2.9.7-2.3 1.2-4.7 1.5-7.1.2-1.4.3-2.8.4-4.1-.1-.5 0-.9 0-1.4 0 0 0-.1.1-.1v-1-2.3c-.5-.3-.4-.4-.4-.4z"/>
        <linearGradient id="SVGID_3_" gradientUnits="userSpaceOnUse" x1="70.4" y1="32.8" x2="70.4" y2="32.8" gradientTransform="matrix(1 0 0 -1 0 118.8)">
            <stop offset="0" stop-color="#8196a7"/>
            <stop offset=".53" stop-color="#7e95a7"/>
            <stop offset="1"/>
        </linearGradient>
        <path class="st4" d="M70.4 86z"/>
        <path class="st5" d="M88.3 50.8c-.1-.5 0-.9 0-1.4 0 0 0-.1.1-.1 0 .6 0 1.1-.1 1.5.1 0 .1 0 0 0z"/>
        <path class="st5" d="M36.4 89.3c.4 0 .9 0 1.3.1-.5 0-.9 0-1.3-.1z"/>
        <path class="st5" d="M39.6 89.4c.3-.1.6-.1.9-.1v.1h-.9z"/>
        <path class="st5" d="M36.3 53.2c.3-.4.5-.7.7-1 1.5-2.1 2.9-4.3 4.4-6.4l4.8-6.9c.3-.4.4-.8.4-1.3 0-.4-.1-.7-.2-1-.3-.9-.9-1.6-1.7-2.1-.4-.3-.8-.4-1.3-.4-.6 0-1.2 0-1.7.2-1 .4-1.6 1-2 2-.6 1.6-.4 3 .6 4.4.2.3.1.3 0 .4-.7.7-1.4 1.4-2.1 2-.1.1-.2.2-.3.1-1.2-1.1-2.1-2.3-2.4-3.9-.4-1.5-.2-3 .5-4.3.5-1 1.1-1.8 1.8-2.7.9-1.1 2.1-1.7 3.5-1.9 1.7-.3 3.4-.1 5 .6 1.1.4 2 1.2 2.8 2.1.6.7 1.1 1.5 1.4 2.3.7 1.8.6 3.6-.3 5.3-.8 1.6-1.7 3.1-2.8 4.5-.9 1.2-1.9 2.4-2.8 3.6-.1.1-.2.2-.2.4.1.1.2.1.4.1h5.3c.3 0 .3 0 .3.3V53.2c0 .2 0 .2-.2.2H36.9c-.3-.2-.4-.2-.6-.2z"/>
        <path class="st5" d="M20.4 41.4v-.3-3.8c0-.2.1-.4.3-.5 1.3-.7 2.7-1 4.2-.9 3 .2 5.3 1.6 7 4.2 1 1.6 1.4 3.4 1.2 5.3-.3 2.7-1.5 4.8-3.7 6.3-1.7 1.2-3.6 1.7-5.7 1.5-2.2-.2-4.2-1.1-5.8-2.7-1.2-1.2-1.9-2.6-2.1-4.3-.1-.4-.1-.8-.1-1.2V30.6c0-.4 0-.4.4-.4H19c.3 0 .3 0 .3.4v14.1c0 2.1 1.3 3.9 3.1 4.6 1.3.5 2.6.6 3.9 0 .9-.4 1.6-1.1 2.2-1.9.8-1.3 1-2.6.7-4.1-.3-1.4-1.1-2.5-2.4-3.1-1.9-.9-3.8-.7-5.6.5-.3.2-.5.4-.8.7z"/>
        <path class="st5" d="M58.5 41.4c-.1-.1 0-.2 0-.3v-3.8c0-.3.1-.4.3-.5 1.3-.7 2.7-1 4.1-.9 2.5.1 4.6 1.2 6.2 3.1 1.1 1.3 1.8 2.8 2 4.6.3 2.9-.6 5.4-2.7 7.4-1.3 1.3-3 2-4.8 2.2-2.6.3-4.9-.4-7-2-1.5-1.2-2.4-2.8-2.8-4.7-.1-.4-.1-.8-.1-1.2V30.7v-.1c0-.3 0-.3.3-.3h3c.3 0 .3 0 .3.3v14c0 2.7 1.9 4.4 3.8 4.9 1.6.4 3.1.2 4.4-.9 1-.8 1.6-1.9 1.8-3.2.1-.8.1-1.7-.1-2.5-.4-1.5-1.4-2.4-2.8-2.9-1.6-.5-3.2-.4-4.6.4-.5.3-.9.6-1.3 1z"/>
        <path class="st6" d="M37.5 65.1h-3.7c-.7 0-1.3-.1-1.9-.3-.6-.2-1.1-.6-1.4-1.2-.4-.7-.5-1.5-.5-2.2 0-1.2-.1-2.4 0-3.6.1-.6.2-1.1.4-1.7.3-.8.9-1.3 1.7-1.5.8-.2 1.7-.3 2.5-.3H41c.7 0 1.4.1 2.2.3.8.2 1.3.7 1.6 1.5.2.6.4 1.3.4 1.9v3.5c0 .4-.1.9-.2 1.3-.4 1.2-1.2 1.9-2.4 2-1 .1-1.9.1-2.9.1-.8.2-1.5.2-2.2.2zm-.3-1.2h3.3c.5 0 1-.1 1.5-.1.7-.1 1.1-.5 1.3-1.1.1-.4.2-.8.2-1.3v-3c0-.5-.1-1-.2-1.5-.2-.6-.6-.9-1.1-1.1-.5-.1-1-.2-1.5-.2h-6.4c-.3 0-.6 0-.9.1-.8.1-1.3.5-1.5 1.2-.1.2-.1.3-.1.5-.1.4-.1.8-.1 1.2v2.5c0 .6.1 1.2.3 1.8.2.5.5.8 1.1.9.3.1.6.1 1 .1h3.1z"/>
        <path class="st6" d="M15.9 61.7h1.3c.1 0 .1.1.1.2v.8c.1.5.4.9.9 1 .4.1.9.2 1.4.2h4.6c.6 0 1.3-.1 1.9-.3.2-.1.5-.2.7-.3.3-.2.4-.5.4-.8v-1.1c-.1-.6-.5-1.1-1.2-1.1h-6.5c-.6 0-1.1 0-1.7-.1-.4-.1-.7-.2-1-.4-.7-.4-1.1-.9-1.1-1.7v-1.4c.2-1.1.9-1.9 2.1-2.1.9-.2 1.8-.2 2.8-.2h3.6c.8 0 1.5.1 2.3.3.9.3 1.5.9 1.8 1.8.1.4.1.7.1 1.1h-1.5c-.1-.2 0-.3 0-.5 0-.6-.3-1.1-.9-1.2-.4-.1-.9-.2-1.3-.2h-4.9c-.4 0-.8 0-1.2.1-.8.2-1.2.6-1.2 1.4v.5c0 .8.5 1.4 1.4 1.4H25.1c.7 0 1.3.1 2 .3.3.1.5.2.8.3.6.4 1 .9 1.1 1.7.1.6.1 1.1 0 1.7-.1.5-.3.9-.7 1.3-.6.5-1.2.7-2 .8-.9.1-1.8.1-2.7.1h-3.5c-.7 0-1.4 0-2.1-.3-.1-.1-.3-.1-.4-.2-.9-.3-1.3-1-1.4-2-.3-.4-.3-.7-.3-1.1z"/>
        <path class="st6" d="M52 54.3h5.4c.1 0 .2 0 .2.2v.9c0 .1-.1.2-.2.1H48c-.1 0-.1 0-.1.1v3c0 .3 0 .3.3.3h8.7c.3 0 .3 0 .3.3v.8c0 .1-.1.2-.2.2h-8.7c-.4 0-.4-.1-.4.4v4.3c0 .1 0 .1-.1.1h-1.2c-.1 0-.1 0-.1-.1v-.2-10c0-.4 0-.4.4-.4H52z"/>
        <path class="st6" d="M64.6 54.3H71c.1 0 .2 0 .2.2v.9c0 .1 0 .2-.2.2h-5.4c-.2 0-.3 0-.3.3v9c0 .3 0 .3-.3.3h-.9c-.1 0-.2 0-.2-.2v-.3V56c0-.4 0-.4-.4-.4H58c-.1 0-.1 0-.1-.1v-.9c0-.1 0-.1.1-.1h.3c2.1-.2 4.2-.2 6.3-.2z"/>
        <linearGradient id="SVGID_4_" gradientUnits="userSpaceOnUse" x1="7.004" y1="77.232" x2="68.085" y2="41.967" gradientTransform="matrix(1 0 0 -1 0 118.8)">
            <stop offset="0" stop-color="#8196a7"/>
            <stop offset=".091" stop-color="#728594"/>
            <stop offset=".408" stop-color="#414c55"/>
            <stop offset=".676" stop-color="#1e2327"/>
            <stop offset=".881" stop-color="#08090b"/>
            <stop offset="1"/>
        </linearGradient>
        <path class="st7" d="M76.9 46.4c-.1.1-.1.2-.1.3V49.5c0 .5 0 1-.1 1.5-.2 2.1-.5 4.1-1 6.1-1.8 7.1-5.3 13.2-10.5 18.3-3 3-6.5 5.4-10.3 7.2-4.4 2.1-9.1 3.4-14 3.7-2 .1-4 .1-6 0-1.8-.2-3.6-.4-5.4-.8-5.3-1.2-10.2-3.5-14.5-6.7-.9-.7-1.8-1.4-2.7-2.2 0-.1-.1-.1-.1-.2-1.3-1.2-2.6-2.5-3.7-3.9-1.8-2.2-3.4-4.5-4.6-7-.5-.9-.9-1.8-1.3-2.8-.3-.7-.6-1.5-.9-2.2-.3-.7-.5-1.5-.7-2.2-.2-.8-.4-1.5-.6-2.3-.2-.8-.3-1.5-.4-2.3 0 .2 0 .5.1.7.1 1.2.3 2.4.5 3.5.6 3.3 1.7 6.5 3.2 9.6 1.8 3.8 4.2 7.1 7.1 10.1l.3.3c1.9 1.9 4 3.6 6.2 5.1 2.8 1.9 5.9 3.3 9.1 4.4.8.3 1.7.5 2.6.8 1 .3 2 .5 3 .6 1.5.3 2.9.4 4.4.5.4 0 .9 0 1.3.1h1.9c.3-.1.6-.1.9-.1 1.1 0 2.1-.1 3.2-.3 2.4-.3 4.7-.8 6.9-1.6 5.8-1.9 10.9-5 15.2-9.4 3-3 5.5-6.4 7.3-10.3 2.6-5.3 3.9-11 4-16.9 0-1.4-.1-2.9-.3-4.4z"/>
        <path class="st5" d="M76.9 46.4c-.2-.3-.1-.5-.1-.8.1.3.1.5.1.8z"/>
        <path class="st5" d="M14.4 68.1c.1 0 .3.1.3.3l-.3-.3z"/>
        <path class="st5" d="M76.8 49v0z"/>
        <path class="st5" d="M70.2 86.1c0-.1.1-.1.2-.1 0 .1-.1.1-.2.1.1 0 .1 0 0 0z"/>
        <path class="st5" d="M8.6 12.1c0 .1-.1.1 0 0-.1 0 0 0 0 0z"/>
        <path class="st5" d="M70.3 86.1c0 .1-.1.1-.1.1s0-.1.1-.1z"/>
        <path class="st5" d="M76.8 48.8z"/>
        <path class="st5" d="M76.8 46.7c0 .1 0 .1 0 0 0 .1 0 .1 0 0z"/>
        <path class="st5" d="M8.5 12.2c-.1 0 0 0 0 0z"/>
        <path class="st5" d="M14.7 68.4c.1 0 .1 0 0 0 .1.1.1.1 0 0 .1.1 0 0 0 0z"/>
        <path class="st5" d="M14.9 68.5c-.1 0-.1 0 0 0-.1 0-.1 0 0 0-.1 0 0 0 0 0z"/>
        <path class="st5" d="M14.9 68.5c0 .1 0 .1 0 0z"/>
        <path class="st5" d="M70.1 86.2z"/>
        <linearGradient id="SVGID_5_" gradientUnits="userSpaceOnUse" x1="-1761.587" y1="2302.261" x2="-1710.205" y2="2272.595" gradientTransform="scale(-1 1) rotate(38.023 2377.592 3633.122)">
            <stop offset="0" stop-color="#8196a7"/>
            <stop offset=".091" stop-color="#728594"/>
            <stop offset=".408" stop-color="#414c55"/>
            <stop offset=".676" stop-color="#1e2327"/>
            <stop offset=".881" stop-color="#08090b"/>
            <stop offset="1"/>
        </linearGradient>
        <path class="st8" d="M14.5 68.3c0-.1-.1-.2-.1-.3v-.1c-.3-.4-.7-.8-1-1.3v-.1l-.1-.1c-.1-.1-.2-.2-.2-.3-.2-.4-.5-.7-.7-1.1-.9-1.5-1.8-3-2.5-4.6-2.5-5.6-3.3-11.5-2.5-17.6.5-3.5 1.5-6.9 3.1-10.1 1.8-3.7 4.3-6.9 7.3-9.7 1.2-1.1 2.6-2.2 4-3.1 1.3-.8 2.6-1.6 4-2.3 4.2-1.9 8.5-3 13.1-3.1 1 0 1.9 0 2.9.1h.2c1.5.1 3 .3 4.5.6 2.3.5 4.6 1.2 6.7 2.2.8.4 1.6.7 2.3 1.2.6.3 1.2.7 1.7 1 .6.4 1.1.7 1.6 1.1s1.1.8 1.6 1.2c.5.4 1 .9 1.5 1.3-.1-.2-.3-.3-.4-.5-.7-.7-1.4-1.4-2.2-2.1-2.2-1.9-4.5-3.4-7.1-4.7-3.2-1.5-6.5-2.6-10-3-.1 0-.2-.1-.3 0-2.2-.3-4.5-.3-6.7-.1-2.8.2-5.6.8-8.3 1.8-.7.3-1.4.5-2.1.8-.8.3-1.6.7-2.3 1.1-1.1.6-2.2 1.2-3.2 2-.3.2-.5.5-.9.6-.4.3-.9.7-1.3 1-.1.2-.4.3-.5.5-.7.6-1.3 1.2-2 1.8-1.4 1.4-2.7 3-3.8 4.6-2.8 4.3-4.6 9-5.2 14.1-.4 3.6-.3 7.1.5 10.6 1 4.9 3.1 9.3 6.1 13.3.6 1.5 1.4 2.4 2.3 3.3z"/>
    </g>
</svg>
